<svg xmlns="http://www.w3.org/2000/svg" viewBox="0 0 1093.25 1080"><defs><style>.cls-1{fill:none;}.cls-2{fill:#a6c9ea;}</style></defs><g id="Layer_2" data-name="Layer 2"><g id="Layer_1-2" data-name="Layer 1"><rect class="cls-1" width="1093.25" height="1080"/><path class="cls-2" d="M970.63,342.2C941.79,358,911.45,376,880.14,396.47c-39.25,25.71-74.35,51.69-105.45,76.77a622.09,622.09,0,0,1-72.46-41.56A621.49,621.49,0,0,1,637.44,382H566.53v37.32c17.81,18,36.43,38.24,55.22,61,20.32,24.59,37.89,48.47,53,70.89q-22.71,77.32-43.62,155.14-46.68,173.56-84.51,349.51Q508.79,879.9,462.11,706.34q-20.91-77.8-43.62-155.14c15.12-22.42,32.69-46.3,53-70.89,18.79-22.74,37.41-43,55.22-61V382H455.81A621.49,621.49,0,0,1,391,431.68a622.09,622.09,0,0,1-72.46,41.56c-31.1-25.08-66.2-51.06-105.45-76.77C181.8,376,151.46,358,122.63,342.2c31-10.8,63.53-23.24,97.31-37.61,37.88-16.11,73-32.81,105.25-49.47A713.16,713.16,0,0,1,391,295.19a713.56,713.56,0,0,1,63.13,48.67h72.16V307.37a668.25,668.25,0,0,0-48.6-59.3,670.46,670.46,0,0,0-59.91-57.5c16.64-25.57,35.36-52.34,56.39-79.83,24.5-32,48.92-60.86,72.44-86.59,23.51,25.73,47.93,54.54,72.43,86.59,21,27.49,39.75,54.26,56.39,79.83a669.39,669.39,0,0,0-108.51,116.8v36.49H639.1a713.06,713.06,0,0,1,129-88.74c32.27,16.66,67.37,33.36,105.25,49.47C907.09,319,939.65,331.4,970.63,342.2Z"/></g></g></svg>